<svg xmlns="http://www.w3.org/2000/svg" xmlns:xlink="http://www.w3.org/1999/xlink" viewBox="0,0,256,256" width="50px" height="50px"><g fill="#57ffc6" fill-rule="nonzero" stroke="none" stroke-width="1" stroke-linecap="butt" stroke-linejoin="miter" stroke-miterlimit="10" stroke-dasharray="" stroke-dashoffset="0" font-family="none" font-weight="none" font-size="none" text-anchor="none" style="mix-blend-mode: normal"><g transform="scale(5.12,5.12)"><path d="M20.00391,5.99609c0,-2.75781 2.23828,-4.99609 4.99609,-4.99609c2.75781,0 4.99609,2.23828 4.99609,4.99609c0,2.75781 -2.23828,4.99609 -4.99609,4.99609c-2.75781,0 -4.99609,-2.23828 -4.99609,-4.99609zM46.98438,36.97656v10.69141c0,1.24609 -1.05078,2.30078 -2.29687,2.30078h-1.39844c-1.14453,0 -2.125,-0.89062 -2.27734,-2h-0.02344c0,-0.55078 -0.44531,-1 -1,-1h-5.01172l-0.09766,0.56641c-0.26172,1.45313 -1.46094,2.46484 -2.91016,2.46484c-0.17969,0 -0.36328,-0.01953 -0.55078,-0.05078c-0.79297,-0.14453 -1.48047,-0.57812 -1.92969,-1.22656c-0.35937,-0.51562 -0.53125,-1.125 -0.51562,-1.75391h-8.04297c0.01953,0.60156 -0.14844,1.22656 -0.51953,1.75391c-0.44922,0.64844 -1.13281,1.08203 -1.92578,1.22656c-1.67578,0.30469 -3.16406,-0.77734 -3.46094,-2.40234l-0.09766,-0.57812h-3.91797c-0.55078,0 -0.99609,0.44922 -0.99609,1h-0.02344c-0.15234,1.10938 -1.13281,2 -2.27734,2h-1.39844c-1.24609,0 -2.29687,-1.05469 -2.29687,-2.30078v-10.69141c0,-2.75781 2.23828,-4.99609 4.99609,-4.99609h3.66406c0.03906,-0.13281 0.08594,-0.26562 0.14063,-0.39062c0.02734,0.02344 0.05078,0.05078 0.07813,0.07422l0.16797,0.14453l0.19531,0.10156c1.07031,0.55469 1.91406,0.87891 2.82031,1.08594l8.60547,1.75391c0.32422,0.08594 0.66016,0.12891 0.99609,0.12891c0.72656,0 1.41797,-0.20312 2.01172,-0.56641l2.17188,-0.41797l2.92578,-0.5625c1.23047,-0.26562 2.78125,-0.79687 2.84375,-0.81641l0.14844,-0.05078l0.13672,-0.07422c0.25,-0.13281 0.48047,-0.27344 0.69922,-0.43359c0.02734,0.03516 0.04688,0.07422 0.07031,0.10938c0.125,-0.05469 0.26172,-0.08594 0.40625,-0.08594h4.89453c2.75391,0 4.99609,2.23828 4.99609,4.99609zM14.58594,44.96875l-1.85547,-10.99219h-3.71875c-1.65234,0 -3,1.34766 -3,3v10.69141c0,0.14844 0.15234,0.30078 0.30078,0.30078h1.39844c0.14844,0 0.30078,-0.15234 0.30078,-0.30078h0.01563c0.14844,-1.51172 1.42969,-2.69922 2.98047,-2.69922zM19.88672,36.73828l0.84766,8.23047h8.42578l0.76172,-7.97266l-4.94922,-1.48828zM44.98828,36.97656c0,-1.65234 -1.34766,-3 -3,-3h-4.79687c-0.01172,0.06641 -0.00391,0.125 -0.01562,0.19531l-1.85547,10.79688h4.66797c1.55469,0 2.83203,1.1875 2.98438,2.69922h0.01563c0,0.14844 0.15234,0.30078 0.30078,0.30078h1.39844c0.14844,0 0.30078,-0.15234 0.30078,-0.30078zM14.17969,30.13672c0.8125,0.42188 1.53125,0.72656 2.33984,0.91016l8.63672,1.75781c0.17188,0.05469 0.34766,0.07813 0.52344,0.07813c0.83203,0 1.625,-0.56641 1.875,-1.47656l0.03516,-0.14062c0.18359,-1.08203 -0.50391,-2.04297 -1.47266,-2.24609c-1.31641,-0.29687 -7.23828,-1.66406 -7.23828,-1.66406c-0.52344,-0.12109 -0.85547,-0.62891 -0.75781,-1.15625l0.69922,-3.79687c0.10156,-0.54297 0.61719,-0.90234 1.16406,-0.80078c0.54297,0.09766 0.90234,0.62109 0.80078,1.16406l-0.52344,2.85547c1.41406,0.32813 4.08984,0.94531 5.54688,1.27734l4.05469,-0.95312l-0.82812,-3.10156c-0.14453,-0.53516 0.17188,-1.08203 0.70313,-1.22656c0.53516,-0.14062 1.08203,0.17188 1.22656,0.70703l1.09766,4.09766c0.07031,0.26172 0.03125,0.54297 -0.10547,0.76953c-0.13672,0.23438 -0.36328,0.39844 -0.62891,0.46094l-2.69922,0.63672c0.07813,0.08984 0.15625,0.17578 0.22656,0.26953c0.64063,0.875 0.89453,1.95313 0.71484,3.03906l-0.01562,0.08984l-0.02344,0.08984l-0.04297,0.15625l2.92188,-0.5625c1.08594,-0.23437 2.57422,-0.74609 2.57422,-0.74609c0.58984,-0.3125 1.05859,-0.71094 1.36719,-1.21875c0.49609,-0.80078 0.60156,-1.76953 0.32031,-2.82812c-0.37891,-1.79687 -2.00781,-8.83203 -2.53516,-10.42578c-0.71875,-2.00781 -2.30078,-3.16016 -4.33984,-3.16016h-9.79297c-1.42578,0 -3.32031,0.54688 -4.23828,3.15625c-0.18359,0.50391 -0.46484,1.73047 -0.94531,3.85156c-0.51953,2.28125 -1.16406,5.125 -1.66797,6.6875c-0.26953,0.87891 -0.16797,1.80078 0.28516,2.58984c0.19141,0.33203 0.44922,0.61328 0.74219,0.85938z"></path></g></g></svg>