<svg xmlns="http://www.w3.org/2000/svg" xmlns:xlink="http://www.w3.org/1999/xlink" viewBox="0,0,256,256" width="50px" height="50px"><g fill="#57ffc6" fill-rule="nonzero" stroke="none" stroke-width="1" stroke-linecap="butt" stroke-linejoin="miter" stroke-miterlimit="10" stroke-dasharray="" stroke-dashoffset="0" font-family="none" font-weight="none" font-size="none" text-anchor="none" style="mix-blend-mode: normal"><g transform="scale(5.12,5.12)"><path d="M4.8457,6c-1.57,0 -2.8457,1.2757 -2.8457,2.8457v9.1543h46v-9.1543c0,-1.57 -1.2757,-2.8457 -2.8457,-2.8457zM8,10c1.104,0 2,0.895 2,2c0,1.104 -0.896,2 -2,2c-1.104,0 -2,-0.896 -2,-2c0,-1.105 0.896,-2 2,-2zM14,10c1.104,0 2,0.895 2,2c0,1.104 -0.896,2 -2,2c-1.104,0 -2,-0.896 -2,-2c0,-1.105 0.896,-2 2,-2zM19,10h24v4h-24zM2,20v23c0,0.553 0.447,1 1,1h44c0.553,0 1,-0.447 1,-1v-23zM13.9707,24c0.698,0 1.23727,0.19227 1.44727,0.57227c0.936,0.134 1.35086,0.77378 1.50586,1.55078c0.056,0.281 0.07617,0.57895 0.07617,0.87695c0,0.649 -0.13119,1.26537 -0.24219,1.60938c0.109,0.068 0.28719,0.28487 0.24219,0.67188c-0.083,0.72 -0.36978,0.90197 -0.55078,0.91797c-0.07,0.671 -0.68892,1.4668 -0.91992,1.5918c0,0.479 -0.0167,0.84414 0.0293,1.36914c0.554,1.534 4.27236,1.1045 4.44336,4.0625v0.77734h-0.00195h-12v-0.77734c0.172,-2.958 3.90498,-2.5285 4.45898,-4.0625c0.046,-0.525 0.0293,-0.89014 0.0293,-1.36914c-0.231,-0.124 -0.8675,-0.9208 -0.9375,-1.5918c-0.181,-0.016 -0.46483,-0.19797 -0.54883,-0.91797c-0.045,-0.387 0.13319,-0.60288 0.24219,-0.67187c-0.141,-0.557 -0.24714,-1.10138 -0.24414,-1.60937c0.002,-0.307 0.03275,-0.6 0.09375,-0.875c0.277,-1.255 1.18595,-2.125 2.87695,-2.125zM26,26h16v2h-16zM26,31h16v2h-16zM26,36h13v2h-13z"></path></g></g></svg>