<svg xmlns="http://www.w3.org/2000/svg" xmlns:xlink="http://www.w3.org/1999/xlink" viewBox="0,0,256,256" width="50px" height="50px"><g fill="#57ffc6" fill-rule="nonzero" stroke="none" stroke-width="1" stroke-linecap="butt" stroke-linejoin="miter" stroke-miterlimit="10" stroke-dasharray="" stroke-dashoffset="0" font-family="none" font-weight="none" font-size="none" text-anchor="none" style="mix-blend-mode: normal"><g transform="scale(5.12,5.12)"><path d="M25,3c-3.86719,0 -7,3.13281 -7,7c0,3.86719 3.13281,7 7,7c3.86719,0 7,-3.13281 7,-7c0,-3.86719 -3.13281,-7 -7,-7zM18,21c-3.25,0 -5.47266,2.27344 -5.9375,2.88672c-1.77734,2.35547 -6.00781,9.27344 -6.00781,9.27344c-1.41016,2.41797 -1.42187,4.30078 0.53125,6.25391l5.14453,5.14844c1.05469,1.05859 2.76953,1.05859 3.82813,0c0.30078,-0.30078 0.50391,-0.65625 0.63281,-1.03125l0.30859,4.46875h17l0.28125,-4.1875c0.13281,0.32422 0.32813,0.625 0.59375,0.89063c1.05469,1.05469 2.76953,1.05469 3.82813,0l5.21094,-5.28906c1.95313,-1.95312 1.94141,-3.83594 0.53125,-6.25391c0,0 -4.23047,-6.91797 -6.00781,-9.27344c-0.46484,-0.61328 -2.6875,-2.88672 -5.9375,-2.88672h-1.04687l-4.44922,10.66797l1.05859,0.36328c0.34375,0.11328 0.51953,0.47266 0.39844,0.80078l-1.77734,4.75c-0.125,0.32813 -0.5,0.49609 -0.84375,0.38281l-2.90234,-0.99609c-0.34375,-0.11328 -0.52344,-0.47266 -0.40234,-0.80078l1.57813,-4.21094l-4.58594,-10.95703zM20.92188,21l4.07813,9.73047l4.0625,-9.73047zM14.99609,30l1.00391,11.34375c-0.12109,-0.21484 -0.26172,-0.42578 -0.44141,-0.60937l-4.85156,-4.85547zM35.00391,30l4.28906,5.87891l-4.91797,4.99609c-0.14844,0.14453 -0.26953,0.30469 -0.375,0.47266z"></path></g></g></svg>